<svg width="215" height="113" viewBox="0 0 215 113" fill="none" xmlns="http://www.w3.org/2000/svg">
<path d="M126.481 44.4158V44.561V44.7061V44.8513V44.9965L126.627 45.1416V45.2868V45.4319V45.5771L126.774 45.7222V45.8674V46.0125V46.1577V46.3028V46.448V46.5931H126.92V46.7383V46.8834L129.705 46.5931V46.448V46.3028V46.1577V46.0125V45.8674L129.558 45.7222V45.5771V45.4319V45.2868V45.1416V44.9965L129.412 44.8513V44.7061V44.561V44.4158L129.265 44.2707V44.1255V43.9804V43.8352V43.6901L129.119 43.5449L126.334 44.2707V44.4158H126.481Z" fill="#1D1D1B"/>
<path d="M128.092 40.4973V40.3521V40.207L127.945 40.0618V39.9167L127.799 39.7715V39.6264V39.4812L127.652 39.3361V39.1909H127.505V39.0457L127.359 38.9006V38.7554L127.212 38.6103V38.4651V38.32L127.066 38.1748V38.0297H126.919V37.8845L124.428 39.3361V39.4812L124.574 39.6264L124.721 39.7715V39.9167V40.0618L124.867 40.207L125.014 40.3521V40.4973V40.6424L125.161 40.7876V40.9327L125.307 41.0779V41.223V41.3682H125.454V41.5133V41.6585L125.6 41.8036L128.238 40.6424L128.092 40.4973Z" fill="#1D1D1B"/>
<path d="M125.158 35.2715L125.012 35.1264V34.9812L124.865 34.8361L124.719 34.6909L124.572 34.5458V34.4006L124.425 34.2555H124.279V34.1103L124.132 33.9652L123.986 33.82L123.839 33.6749L123.693 33.5297V33.3845H123.546L123.4 33.2394V33.0942H123.253L121.201 34.9812V35.1264H121.348L121.494 35.2715V35.4167H121.641V35.5618L121.787 35.707H121.934V35.8521L122.081 35.9973L122.227 36.1424L122.374 36.2876V36.4328L122.52 36.5779L122.667 36.7231L122.813 36.8682L122.96 37.0134L125.305 35.4167L125.158 35.2715Z" fill="#1D1D1B"/>
<path d="M121.057 30.9174H120.91L120.764 30.7722L120.617 30.6271L120.47 30.4819H120.324L120.177 30.3368L120.031 30.1916L119.884 30.0465H119.738L119.591 29.9013L119.445 29.7561H119.298L119.151 29.611L119.005 29.4658L118.858 29.3207H118.712L118.565 29.1755L117.1 31.6431L117.246 31.7883H117.393L117.539 31.9334L117.686 32.0786H117.832V32.2237H117.979L118.126 32.3689H118.272V32.5141H118.419L118.565 32.6592L118.712 32.8044L118.858 32.9495L119.005 33.0947H119.151V33.2398H119.298L121.057 31.0625V30.9174Z" fill="#1D1D1B"/>
<path d="M112.555 29.4664L112.701 29.6116H112.848L112.995 29.7567H113.141H113.288L113.434 29.9019H113.581L113.727 30.047H113.874H114.02V30.1922H114.167H114.314L114.46 30.3373H114.607L115.926 27.7246H115.779H115.633L115.486 27.5794H115.339L115.193 27.4343H115.046H114.9L114.753 27.2891H114.607H114.46V27.144H114.314L114.167 26.9988H114.02H113.874L113.727 26.8536H113.581H113.434L113.288 26.7085H113.141H112.995L112.115 29.4664H112.262H112.408H112.555Z" fill="#1D1D1B"/>
<path d="M107.133 28.4498L107.28 28.595H107.426H107.573H107.719H107.866H108.012H108.159H108.305H108.452H108.599L108.745 28.7401H108.892H109.038H109.185H109.331H109.478L110.064 25.9822H109.918H109.771H109.624L109.478 25.837H109.331H109.185H109.038H108.892H108.745H108.599L108.452 25.6919H108.305H108.159H108.012H107.866H107.719H107.573H107.426H107.28H107.133H106.986L106.84 28.4498H106.986H107.133Z" fill="#1D1D1B"/>
<path d="M145.676 44.5609V44.8512V44.9964V45.1415V45.4318V45.577V45.7221L145.529 46.0125V46.1576V46.4479V46.5931V46.8834L145.383 47.0285V47.3188H150.073V47.0285V46.7382L150.219 46.5931V46.3028V46.0125V45.7221V45.577V45.2867V44.9964L150.366 44.7061V44.5609L145.676 44.4158V44.5609Z" fill="#1D1D1B"/>
<path d="M144.947 35.9978V36.2881V36.5784L145.094 36.7235V37.0138V37.3041L145.24 37.4493V37.7396V38.0299V38.1751L145.387 38.4654V38.7557V38.9008V39.1911V39.4814L145.534 39.7717V39.9169V40.2072L150.077 39.7717V39.4814V39.1911V38.9008L149.93 38.6105V38.3202V38.1751V37.8847L149.784 37.5944V37.3041V37.0138V36.7235L149.637 36.4332V36.1429V35.9978L149.491 35.7075V35.4171L149.344 35.1268V34.9817L144.801 35.9978H144.947Z" fill="#1D1D1B"/>
<path d="M142.158 27.7244L142.305 28.0147V28.1598L142.451 28.4502L142.598 28.5953V28.8856L142.744 29.0308L142.891 29.3211V29.4662L143.038 29.7565L143.184 29.9017V30.192L143.331 30.4823V30.6274L143.477 30.9178V31.0629L143.624 31.3532V31.4984L143.77 31.7887L148.167 30.3371L148.02 30.192V29.9017L147.874 29.6114L147.727 29.3211V29.1759L147.581 28.8856V28.5953L147.434 28.305L147.288 28.1598V27.8695L147.141 27.5792L146.995 27.2889V27.1438L146.848 26.8535L146.701 26.5632L146.555 26.418V26.1277L146.408 25.8374L142.158 27.7244Z" fill="#1D1D1B"/>
<path d="M137.766 20.3221L137.912 20.6124L138.059 20.7576L138.205 20.9027L138.352 21.193L138.498 21.3382L138.645 21.4833L138.792 21.7736L138.938 21.9188L139.085 22.0639L139.231 22.3543V22.4994L139.378 22.7897L139.524 22.9349L139.671 23.08L139.817 23.3703L139.964 23.5155L140.111 23.6606V23.9509L144.068 21.6285V21.3382L143.921 21.193L143.774 20.9027L143.628 20.7576L143.481 20.4673L143.335 20.177L143.188 20.0318L143.042 19.7415L142.895 19.5963L142.749 19.306L142.602 19.1609L142.455 18.8706L142.309 18.7254L142.162 18.4351L142.016 18.29L141.869 17.9997L141.576 17.8545L141.43 17.7094V17.5642L137.766 20.3221Z" fill="#1D1D1B"/>
<path d="M132.047 14.2262L132.34 14.5165L132.487 14.6617L132.633 14.8068L132.78 14.952L132.926 15.0972L133.219 15.2423L133.366 15.3875L133.513 15.5326L133.659 15.6778L133.806 15.9681L133.952 16.1132L134.245 16.2584L134.392 16.4035L134.538 16.5487L134.685 16.6938L134.832 16.9841H134.978L138.349 13.9359L138.202 13.7908L138.056 13.6456L137.909 13.3553L137.616 13.2102L137.47 13.065L137.323 12.7747L137.03 12.6296L136.883 12.4844L136.737 12.3392L136.59 12.0489L136.297 11.9038L136.151 11.7586L136.004 11.6135L135.711 11.3232L135.564 11.178L135.418 11.0329L135.125 10.8877L134.978 10.7426L134.832 10.5974L131.754 14.0811H131.9L132.047 14.2262Z" fill="#1D1D1B"/>
<path d="M124.867 9.29L125.014 9.43515H125.307L125.454 9.58031L125.747 9.72546L125.893 9.87061L126.04 10.0158L126.333 10.1609H126.479L126.773 10.3061L126.919 10.4512L127.066 10.5964L127.359 10.7415L127.505 10.8867L127.798 11.0318L127.945 11.177L128.092 11.3221H128.385L130.876 7.54817L130.73 7.40301L130.437 7.25786L130.29 7.11271L129.997 6.96755L129.85 6.8224L129.557 6.67725L129.411 6.5321L129.117 6.38694H128.971L128.678 6.24179L128.385 6.09664L128.238 5.95148L127.945 5.80633L127.798 5.66118L127.505 5.51603L127.212 5.37087L127.066 5.22572L126.773 5.08057L124.574 9.14485L124.867 9.29Z" fill="#1D1D1B"/>
<path d="M116.953 6.09593H117.246L117.393 6.24108H117.686L117.979 6.38624H118.126L118.419 6.53139H118.565L118.859 6.67654H119.152L119.298 6.8217L119.591 6.96685H119.738L120.031 7.112H120.178L120.471 7.25715H120.617L122.376 3.04772H122.083L121.936 2.90257L121.643 2.75741H121.35L121.057 2.61226L120.91 2.46711H120.617L120.324 2.32196H120.031L119.884 2.1768L119.591 2.03165H119.298L119.005 1.8865H118.859L118.565 1.74134H118.272L117.979 1.59619H117.686L116.514 5.95078H116.807L116.953 6.09593Z" fill="#1D1D1B"/>
<path d="M108.453 4.64489H108.6H108.893H109.186H109.479H109.626H109.919L110.212 4.79005H110.359H110.652H110.945H111.091L111.385 4.9352H111.678H111.971H112.117L112.264 5.08035L112.997 0.580612L112.85 0.435459H112.557H112.264H112.117L111.824 0.290306H111.531H111.238H110.945L110.652 0.145153H110.359H110.066H109.772H109.479L109.186 0H109.04H108.747H108.453H108.16L107.867 4.49974L108.16 4.64489H108.453Z" fill="#1D1D1B"/>
<path d="M136.297 44.9971V45.1423L136.443 45.4326V45.5777V45.7229V46.0132V46.1584V46.3035V46.5938L136.59 46.739V46.8841V47.1744V47.3196H140.547V47.0293V46.8841V46.5938V46.4487V46.1584V46.0132V45.7229L140.4 45.5777V45.2874V45.1423V44.852V44.7068L140.254 44.4165V44.2714V44.1262L136.297 44.852V44.9971Z" fill="#1D1D1B"/>
<path d="M134.393 37.8855V38.1758L134.539 38.321V38.4661L134.686 38.6113V38.7564L134.832 39.0467V39.1919L134.979 39.3371V39.4822V39.6274L135.125 39.9177V40.0628L135.272 40.208V40.3531V40.6434L135.419 40.7886V40.9337V41.0789L139.376 40.0628V39.7725L139.229 39.6274V39.3371L139.082 39.1919V39.0467L138.936 38.7564V38.6113L138.789 38.4661V38.1758L138.643 38.0307V37.7404V37.5952L138.496 37.4501L138.35 37.1598V37.0146L138.203 36.8695V36.5791L138.057 36.434V36.2888L137.91 35.9985L134.246 37.5952V37.7404L134.393 37.8855Z" fill="#1D1D1B"/>
<path d="M130.582 31.353L130.729 31.4981L130.875 31.6433L131.022 31.7884V31.9336L131.168 32.0788L131.315 32.2239V32.3691L131.461 32.5142L131.608 32.6594L131.755 32.8045V33.0948L131.901 33.24L132.048 33.3851V33.5303L132.194 33.6754L132.341 33.8206V33.9657L132.487 34.1109V34.256L136.005 32.2239V32.0788L135.858 31.9336L135.712 31.7884V31.6433L135.565 31.353L135.418 31.2078L135.272 31.0627L135.125 30.9175V30.6272L134.979 30.4821L134.832 30.3369L134.686 30.1918V30.0466L134.539 29.9015L134.393 29.6112L134.246 29.466L134.099 29.3208L133.953 29.1757V29.0305L133.806 28.8854L133.66 28.7402L130.436 31.0627L130.582 31.2078V31.353Z" fill="#1D1D1B"/>
<path d="M130.729 25.4022L130.583 25.257L130.436 25.1119L130.29 24.9667L130.143 24.8216L129.997 24.6764L129.85 24.5313L129.703 24.3861L129.557 24.241L129.41 24.0958L129.264 23.9507L129.117 23.8055L128.971 23.6604L128.824 23.5152L128.678 23.3701L128.531 23.2249L128.384 23.0797L128.238 22.9346L127.945 22.7894L127.798 22.6443L125.16 25.6925L125.307 25.8376L125.453 25.9828H125.6L125.746 26.128L125.893 26.2731L126.039 26.4183L126.186 26.5634L126.333 26.7086H126.479L126.626 26.8537V26.9989L126.772 27.144L126.919 27.2892L127.065 27.4343L127.212 27.5795H127.359L127.505 27.7246L127.652 27.8698L127.798 28.0149L127.945 28.1601V28.3052L130.876 25.4022H130.729Z" fill="#1D1D1B"/>
<path d="M122.08 18.8696H121.933L121.64 18.7244L121.494 18.5793H121.347L121.2 18.4341L120.907 18.289H120.761L120.614 18.1438H120.468L118.709 21.7726H118.856L119.002 21.9178H119.149L119.295 22.0629H119.588L119.735 22.2081L119.881 22.3532H120.028L120.175 22.4984H120.321L120.468 22.6435L120.614 22.7887H120.907L121.054 22.9338H121.2L121.347 23.079L121.494 23.2242H121.64L121.787 23.3693L121.933 23.5145H122.08L124.278 20.1759L124.132 20.0308L123.838 19.8856H123.692L123.545 19.7405L123.399 19.5953H123.252L122.959 19.4502L122.813 19.305L122.666 19.1599H122.373L122.226 19.0147L122.08 18.8696Z" fill="#1D1D1B"/>
<path d="M112.702 15.6769L112.409 15.5317H112.262L111.529 19.4509H111.676L111.822 19.596H112.116H112.262H112.409L112.555 19.7412H112.848H112.995L113.141 19.8863H113.288H113.581L113.728 20.0315H113.874H114.021L114.314 20.1766H114.46H114.607L114.754 20.3218H115.047H115.193V20.4669L116.512 16.5478H116.366H116.219L115.926 16.4027H115.779L115.633 16.2575H115.34H115.193L114.9 16.1124H114.754H114.607L114.314 15.9672H114.167L113.874 15.822H113.728H113.435L113.288 15.6769H113.141H112.848H112.702Z" fill="#1D1D1B"/>
<path d="M112.554 96.6721L112.261 96.9624L112.115 97.2527L111.968 97.3979L111.675 97.6882L111.528 97.9785L111.382 98.1236L111.089 98.414L110.942 98.7043L110.649 98.8494L110.502 99.1397L110.356 99.2849L110.209 99.5752L109.916 99.8655L109.77 100.011L109.623 100.301L113.14 103.059L113.287 102.914L113.58 102.623L113.727 102.478L113.873 102.188L114.166 102.043L114.313 101.752L114.459 101.462L114.753 101.317L114.899 101.027L115.046 100.882L115.339 100.591L115.485 100.301L115.632 100.156L115.925 99.8655L116.072 99.5752L112.554 96.6721Z" fill="#1D1D1B"/>
<path d="M118.269 89.8499L117.976 90.1402L117.829 90.2853L117.536 90.5756L117.39 90.8659L117.097 91.1562L116.95 91.4466L116.657 91.5917L116.51 91.882L116.364 92.1723L116.071 92.4626L115.924 92.7529L115.631 92.8981L115.484 93.1884L119.002 96.0914L119.148 95.8011L119.441 95.656L119.588 95.3657L119.881 95.0754L120.028 94.7851L120.321 94.6399L120.467 94.3496L120.76 94.0593L120.907 93.769L121.2 93.4787L121.347 93.3335L121.64 93.0432L121.786 92.7529L121.933 92.6078L118.416 89.5596L118.269 89.8499Z" fill="#1D1D1B"/>
<path d="M105.814 22.0633C107.133 19.5957 108.013 17.8539 109.478 15.2411L107.719 11.7575L105.961 8.41895L104.056 11.9026L102.297 15.3863C103.469 17.7087 104.642 19.7409 105.814 22.0633Z" fill="#1D1D1B"/>
<path d="M83.3881 11.321H83.5347L83.6812 11.1759L83.9743 11.0307L84.1209 10.8856L84.414 10.7404L84.5606 10.5953L84.7071 10.4501L85.0002 10.305L85.1468 10.1598H85.2933L85.5865 10.0147L85.733 9.8695L86.0261 9.72435L86.1727 9.5792L86.4658 9.43404H86.6124L86.7589 9.28889H86.9055L84.7071 5.22461H84.5606L84.414 5.36976L84.1209 5.51492L83.9743 5.66007L83.6812 5.80522L83.3881 5.95037L83.2415 6.09553L82.9484 6.24068L82.8019 6.38583H82.5088L82.3622 6.53099L82.0691 6.67614L81.9225 6.82129L81.6294 6.96644L81.3363 7.1116L81.1897 7.25675L80.8966 7.4019L80.7501 7.54706L80.6035 7.69221L83.2415 11.4662L83.3881 11.321Z" fill="#1D1D1B"/>
<path d="M91.8896 33.5302H92.0362L92.1827 33.3851L92.3293 33.2399H92.4758V33.0948H92.6224L92.769 32.9496H92.9155V32.8044L93.0621 32.6593H93.2086V32.5141H93.3552L93.5017 32.369L93.6483 32.2238H93.7949L93.9414 32.0787L94.088 31.9335L92.4758 29.6111L92.3293 29.7562H92.1827V29.9014H92.0362L91.8896 30.0465H91.7431L91.5965 30.1917V30.3368H91.4499L91.3034 30.482H91.1568L91.0103 30.6272V30.7723H90.8637L90.7172 30.9175H90.5706V31.0626L90.424 31.2078H90.2775L90.1309 31.3529V31.4981H89.9844L91.8896 33.6754V33.5302Z" fill="#1D1D1B"/>
<path d="M89.8409 23.3704L89.9875 23.2253H90.1341L90.2806 23.0801L90.4272 22.935H90.7203L90.8668 22.7898H91.0134L91.16 22.6447L91.3065 22.4995H91.4531L91.5996 22.3543H91.7462L92.0393 22.2092L92.1859 22.064H92.3324L92.479 21.9189H92.6255L92.7721 21.7737H92.9186L93.0652 21.6286L91.4531 17.9998L91.3065 18.1449H91.16L90.8668 18.2901H90.7203L90.5737 18.4352L90.2806 18.5804H90.1341L89.9875 18.7255L89.8409 18.8707H89.5478L89.4013 19.0158L89.2547 19.161H89.1082L88.815 19.3061L88.6685 19.4513L88.5219 19.5964H88.3754L88.0822 19.7416L87.9357 19.8867H87.7891L87.6426 20.0319L89.6944 23.5156L89.8409 23.3704Z" fill="#1D1D1B"/>
<path d="M71.5196 23.9515L71.6662 23.6612V23.5161L71.8127 23.3709L71.9593 23.0806L72.1058 22.9355L72.2524 22.7903L72.399 22.5L72.5455 22.3549L72.6921 22.0645L72.8386 21.9194V21.7742L72.9852 21.4839L73.1317 21.3388L73.2783 21.1936L73.4249 20.9033L73.5714 20.7582L73.718 20.613L73.8645 20.4679L70.054 17.71V17.8551L69.9075 18.0003L69.7609 18.2906L69.6144 18.4357L69.4678 18.726L69.3213 18.8712L69.0281 19.1615L68.8816 19.3066L68.735 19.5969L68.5885 19.7421L68.4419 20.0324L68.2954 20.1776L68.1488 20.4679L68.0022 20.7582V20.9033L67.8557 21.1936L67.7091 21.3388L67.5626 21.6291L67.416 21.7742L71.3731 24.0967L71.5196 23.9515Z" fill="#1D1D1B"/>
<path d="M76.6482 17.1282L76.7947 16.983L76.9413 16.6927L77.0878 16.5476L77.2344 16.4024L77.5275 16.2573L77.6741 16.1121L77.8206 15.967L77.9672 15.6767L78.1137 15.5315L78.2603 15.3863L78.5534 15.2412L78.7 15.096L78.8465 14.9509L78.9931 14.8057L79.1396 14.6606L79.4327 14.5154L79.5793 14.2251L79.7259 14.08L76.7947 10.7415H76.6482L76.5016 10.8866L76.355 11.0318L76.0619 11.1769L75.9154 11.3221L75.7688 11.6124L75.4757 11.7575L75.3291 11.9027L75.1826 12.0478L74.8895 12.3381L74.7429 12.4833L74.5964 12.6284L74.4498 12.7736L74.1567 13.0639L74.0101 13.2091L73.8636 13.3542L73.5705 13.6445L73.4239 13.7897L73.2773 13.9348V14.08L76.6482 17.1282Z" fill="#1D1D1B"/>
<path d="M83.9761 28.0143V27.8692L84.1227 27.724L84.2693 27.5789H84.4158L84.5624 27.4337L84.7089 27.2886L84.8555 27.1434L85.002 26.9983L85.1486 26.8531L85.2952 26.708H85.4417L85.5883 26.5628L85.7348 26.4177L85.8814 26.2725V26.1274L86.0279 25.9822H86.1745L86.3211 25.8371L86.4676 25.6919L86.6142 25.5467L84.1227 22.4985L83.9761 22.6437H83.8296L83.683 22.7888L83.5365 22.934L83.3899 23.0791L83.2434 23.2243L83.0968 23.3695L82.8037 23.5146L82.6571 23.6598L82.5106 23.8049L82.364 23.9501L82.2174 24.0952L82.0709 24.2404L81.9243 24.3855L81.7778 24.5307L81.6312 24.6758L81.4847 24.821L81.3381 24.9661L81.1916 25.1113L81.045 25.2564H80.8984L83.8296 28.1595L83.9761 28.0143Z" fill="#1D1D1B"/>
<path d="M91.0127 7.40231L91.1592 7.25716L91.4523 7.112H91.5989L91.892 6.96685H92.1851L92.3317 6.8217L92.6248 6.67654H92.7714L93.0645 6.53139H93.211L93.5041 6.38624H93.7973L93.9438 6.24109H94.2369L94.3835 6.09593H94.6766L94.9697 5.95078L93.7973 1.59619H93.6507L93.3576 1.74134H93.0645L92.9179 1.8865H92.6248L92.3317 2.03165H92.0386L91.892 2.1768L91.5989 2.32196H91.3058L91.0127 2.46711H90.8661L90.573 2.61226L90.2799 2.75741H89.9868L89.8402 2.90257L89.5471 3.04772H89.254L89.1074 3.19287L90.8661 7.40231H91.0127Z" fill="#1D1D1B"/>
<path d="M99.2191 5.08035L99.5122 4.9352H99.8053H99.9519H100.245L100.538 4.79005H100.685H100.978H101.271H101.564L101.711 4.64489H102.004H102.297H102.443H102.736H103.03H103.323H103.469H103.616L103.323 0H103.03H102.736H102.443L102.15 0.145153H101.857H101.564H101.271H100.978L100.685 0.290306H100.392H100.098H99.9519L99.6588 0.435459H99.3657H99.0726H98.7794L98.4863 0.580612L99.2191 5.08035Z" fill="#1D1D1B"/>
<path d="M101.713 28.8853H101.86H102.006L102.153 28.7401H102.3H102.446H102.593H102.739H102.886L103.032 28.595H103.179H103.325H103.472H103.619H103.765H103.912H104.058H104.205L103.912 25.6919H103.765H103.619H103.472H103.325H103.179L103.032 25.837H102.886H102.739H102.593H102.446H102.3H102.153L102.006 25.9822H101.86H101.713H101.567H101.42H101.274L101.127 26.1274H100.981H100.834L101.567 28.8853H101.713Z" fill="#1D1D1B"/>
<path d="M96.7272 20.3218H96.8738L97.0203 20.1766H97.1669H97.46L97.6066 20.0315H97.7531H97.8997L98.1928 19.8863H98.3393H98.4859L98.6325 19.7412H98.9256H99.0721L99.2187 19.596H99.3653H99.6584H99.8049L99.9515 19.4509H100.245L99.5118 15.5317H99.2187L99.0721 15.6769H98.779H98.6325H98.3393L98.1928 15.822H97.8997H97.7531L97.6066 15.9672H97.3135L97.1669 16.1124H96.8738H96.7272L96.4341 16.2575H96.2875H96.141L95.8479 16.4027H95.7013L95.4082 16.5478L96.5807 20.3218H96.7272Z" fill="#1D1D1B"/>
<path d="M61.4082 45.2873V45.5776V45.7227V46.0131V46.3034L61.5548 46.5937V46.7388V47.0291V47.3194H66.2446V47.0291V46.884L66.098 46.5937V46.4485V46.1582V46.0131V45.8679V45.5776V45.4324L65.9515 45.1421V44.997V44.8518V44.5615L61.4082 44.8518V44.997V45.2873Z" fill="#1D1D1B"/>
<path d="M96.4362 30.6271H96.5828V30.482H96.7293H96.8759L97.0224 30.3368H97.169L97.3155 30.1917H97.4621H97.6087L97.7552 30.0465H97.9018L98.0483 29.9013H98.1949H98.3414L98.488 29.7562H98.6346L98.7811 29.611H98.9277L97.9018 26.9983H97.7552H97.6087L97.4621 27.1434H97.3155L97.169 27.2886H97.0224H96.8759L96.7293 27.4337H96.5828H96.4362L96.2896 27.5789H96.1431L95.9965 27.7241H95.85L95.7034 27.8692H95.5569L95.4103 28.0144H95.2637L95.1172 28.1595L96.4362 30.6271Z" fill="#1D1D1B"/>
<path d="M86.7621 34.8365V34.9817L86.6155 35.1268L86.469 35.272L86.3224 35.4171V35.5623L86.1759 35.7074V35.8526H86.0293V35.9977L88.3742 37.5944L88.5208 37.4493V37.3041L88.6673 37.159L88.8139 37.0138V36.8687H88.9604V36.7235L89.107 36.5784L89.2536 36.4332V36.288L89.4001 36.1429H89.5467V35.9977H89.6932V35.8526L89.8398 35.7074L89.9864 35.5623L87.788 33.6753V33.8204H87.6414L87.4949 33.9656V34.1108L87.3483 34.2559H87.2018V34.4011L87.0552 34.5462L86.9086 34.6914L86.7621 34.8365Z" fill="#1D1D1B"/>
<path d="M85.8842 42.2394L86.0308 42.0943V41.9491L86.1773 41.804V41.6588V41.5137L86.3239 41.3685V41.2233L86.4704 41.0782V40.933V40.7879H86.617V40.6427V40.4976L86.7635 40.3524V40.2073H86.9101V40.0621V39.917L84.4186 38.6106L84.2721 38.7557V38.9009L84.1255 39.0461V39.1912L83.979 39.3364V39.4815L83.8324 39.6267V39.7718V39.917L83.6858 40.0621V40.2073L83.5393 40.3524V40.4976V40.6427L83.3927 40.7879V40.933L83.2462 41.0782V41.2233L83.0996 41.3685L85.8842 42.3846V42.2394Z" fill="#1D1D1B"/>
<path d="M101.566 100.591L101.419 100.301L101.273 100.011L100.979 99.8656L100.833 99.5753L100.686 99.4301L100.393 99.1398L100.247 98.8495L100.1 98.7043L99.9535 98.414L99.6604 98.1237L99.5138 97.9786L99.3673 97.6883L99.0742 97.398L98.9276 97.2528L98.781 97.1077L95.2637 100.011L95.5568 100.301L95.7033 100.591L95.8499 100.736L96.143 101.027L96.2896 101.317L96.4361 101.462L96.7292 101.753L96.8758 102.043L97.0224 102.188L97.3155 102.478L97.462 102.623L97.6086 102.914L97.7551 103.204L98.0483 103.349V103.494L101.712 100.736L101.566 100.591Z" fill="#1D1D1B"/>
<path d="M95.8489 93.4785L95.5558 93.1882L95.4092 92.8979L95.2627 92.7528L94.9696 92.4625L94.823 92.1722L94.5299 91.8819L94.3833 91.7367L94.0902 91.4464L93.9437 91.1561L93.6506 90.8658L93.504 90.5755L93.3574 90.4303L93.0643 90.14V89.9949L89.4004 92.8979L89.5469 93.0431L89.6935 93.1882L89.9866 93.4785L90.1332 93.7688L90.2797 94.0592L90.5728 94.3495L90.7194 94.4946L91.0125 94.7849L91.1591 95.0752L91.4522 95.3655L91.5987 95.6558L91.8919 95.801L92.0384 96.0913L92.185 96.3816H92.3315L95.8489 93.6237V93.4785Z" fill="#1D1D1B"/>
<path d="M66.098 40.2078L66.2445 39.9175V39.7723V39.482V39.1917V38.9014L66.3911 38.7563V38.466V38.1756V38.0305V37.7402L66.5376 37.4499V37.3047V37.0144L66.6842 36.7241V36.579V36.2887L66.8307 36.1435L62.2875 35.1274L62.1409 35.4177V35.7081V35.9984L61.9944 36.1435V36.4338V36.7241L61.8478 37.0144V37.3047V37.595V37.8853L61.7012 38.1756V38.3208V38.6111V38.9014L61.5547 39.1917V39.482V39.7723V39.9175L66.098 40.3529V40.2078Z" fill="#1D1D1B"/>
<path d="M100.979 107.123L101.125 107.268L105.815 112.929L110.651 107.123L105.815 102.768L100.979 107.123Z" fill="#1D1D1B"/>
<path d="M105.815 89.5596L103.763 92.1723L101.711 94.7851L103.763 97.543L105.815 100.156L107.866 97.543L109.918 94.7851L107.866 92.1723L105.961 89.5596H105.815Z" fill="#1D1D1B"/>
<path d="M71.3732 43.9805V44.2708V44.4159V44.7062L71.2266 44.8514V45.1417V45.2868V45.5772V45.7223V46.0126L71.0801 46.1578V46.4481V46.5932V46.8835V47.0287V47.319H75.0371L75.1837 47.1738V46.8835V46.7384V46.5932V46.3029V46.1578V46.0126V45.7223L75.3302 45.5772V45.432V45.1417V44.9965V44.8514L75.4768 44.5611L71.3732 43.9805Z" fill="#1D1D1B"/>
<path d="M67.8576 31.7893L68.0042 31.499V31.3538L68.1508 31.0635V30.9184L68.2973 30.628L68.4439 30.4829V30.1926L68.5904 29.9023V29.7571L68.737 29.4668L68.8836 29.3217V29.0314L69.0301 28.8862V28.5959L69.1767 28.4508L69.3232 28.1604V28.0153L69.4698 27.8701L65.2196 25.9832V26.1283L65.0731 26.4186L64.9265 26.5638L64.78 26.8541V27.1444L64.6334 27.2895L64.4868 27.5798V27.8701L64.3403 28.1604L64.1937 28.3056V28.5959L64.0472 28.8862L63.9006 29.1765V29.3217L63.7541 29.612V29.9023L63.6075 30.1926L63.4609 30.3377V30.4829L67.8576 31.9344V31.7893Z" fill="#1D1D1B"/>
<path d="M79.2869 33.9651L79.4335 33.82V33.6748L79.58 33.5297L79.7266 33.3845V33.2394L79.8731 33.0942L80.0197 32.8039V32.6588L80.1662 32.5136L80.3128 32.3685L80.4594 32.2233V32.0782L80.6059 31.933L80.7525 31.7878V31.6427L80.899 31.4975L81.0456 31.3524L81.1921 31.2072V31.0621L81.3387 30.9169L78.1144 28.5945H77.9679V28.8848L77.8213 29.0299L77.6748 29.1751L77.5282 29.3202L77.3817 29.4654L77.2351 29.6106V29.9009L77.0885 30.046L76.942 30.1912L76.7954 30.3363L76.6489 30.4815V30.6266L76.5023 30.9169L76.3558 31.0621L76.2092 31.2072V31.3524L76.0626 31.6427L75.9161 31.7878L75.7695 31.933V32.0782L79.2869 34.1103V33.9651Z" fill="#1D1D1B"/>
<path d="M76.2109 40.9331L76.3574 40.788V40.6428V40.3525L76.504 40.2074V40.0622L76.6505 39.9171V39.6268V39.4816L76.7971 39.3365V39.1913L76.9437 39.0461V38.7558L77.0902 38.6107V38.4655V38.3204L77.2368 38.1752V37.8849L77.3833 37.7398V37.5946L77.5299 37.4495L73.866 35.8528L73.7194 35.9979L73.5728 36.2882V36.4334L73.4263 36.5785V36.8689L73.2797 37.014V37.1592L73.1332 37.4495V37.5946L72.9866 37.7398V38.0301L72.8401 38.1752V38.4655L72.6935 38.6107V38.7558L72.5469 39.0461V39.1913V39.3365L72.4004 39.6268V39.7719V39.9171L76.2109 40.9331Z" fill="#1D1D1B"/>
<path d="M84.7104 47.1748V47.0296L84.8569 46.8845V46.7393V46.5942V46.449V46.3039V46.1587V46.0136L85.0035 45.8684V45.7233V45.5781V45.433V45.2878L85.15 45.1426V44.9975V44.8523L82.3655 44.2717V44.4169L82.2189 44.562V44.7072V44.8523V44.9975V45.1426L82.0723 45.2878V45.433V45.5781V45.7233V45.8684V46.0136L81.9258 46.1587V46.3039V46.449V46.5942V46.7393V46.8845V47.0296V47.1748V47.3199H84.7104V47.1748Z" fill="#1D1D1B"/>
<path d="M212.654 68.9469L202.835 61.399C201.516 60.3829 200.929 59.0765 200.929 57.7701C200.929 54.4316 204.007 52.9801 206.938 52.9801C209.723 52.9801 212.361 53.9962 212.361 57.1895H212.947L212.8 51.964H211.188C209.869 51.6737 208.404 51.5286 206.645 51.5286C203.714 51.5286 200.929 52.5446 199.317 55.0122C197.559 57.7701 198.145 61.6893 200.636 63.8666L210.456 71.2694C211.628 72.2854 212.214 73.5918 212.214 75.1885C212.214 78.9625 208.697 80.5592 205.326 80.5592C201.222 80.5592 198.291 77.9464 198.878 73.737H198.291C197.852 74.8982 197.705 76.2046 197.705 77.3658C197.705 78.527 197.705 79.3979 197.852 79.6882C199.757 81.4301 203.714 82.0107 206.352 82.0107C210.895 82.0107 214.999 78.8173 214.999 74.1724C214.999 71.85 214.119 70.1081 212.654 68.9469Z" fill="#1D1D1B"/>
<path d="M162.387 79.9779C161.801 79.5424 161.361 78.8166 161.361 78.0909V55.1567C161.361 54.431 161.801 53.8503 162.387 53.4149C163.266 52.6891 164.145 52.6891 165.318 52.6891V52.2537H154.326V52.6891C155.499 52.6891 156.378 52.6891 157.257 53.4149C157.844 53.9955 158.283 54.5761 158.283 55.3019V78.0909C158.283 79.6876 156.525 80.7036 155.059 80.7036H154.326V81.1391H165.465V80.7036C164.145 80.7036 163.266 80.7036 162.387 79.9779Z" fill="#1D1D1B"/>
<path d="M146.41 77.2211C145.677 76.4953 144.798 75.3341 143.625 73.8826C142.453 72.431 141.867 71.7053 141.867 71.7053C140.401 69.6731 139.082 68.3667 138.056 67.9313C142.599 67.4958 145.677 64.1573 145.677 59.6576C145.677 54.1418 140.548 52.1096 135.711 52.1096H123.4V52.5451H124.133C125.599 52.5451 126.918 53.5611 126.918 55.0127V77.9468C126.918 78.6726 126.625 79.2532 126.038 79.8338C125.159 80.5596 124.426 80.5596 123.4 80.5596V80.995H133.366V80.5596C132.633 80.5596 132.047 80.5596 131.314 80.2693C130.435 79.6887 129.995 78.9629 129.995 77.9468V53.7063H132.633C135.272 53.7063 138.203 53.5611 140.401 55.4481C142.746 57.6254 142.599 61.6897 140.987 64.3025C140.548 64.8831 139.815 65.4637 138.789 66.0443C138.056 66.4798 135.711 66.6249 131.901 66.6249V67.0604C134.978 67.0604 137.47 71.2698 139.229 73.5922C140.987 76.0598 142.16 78.092 144.798 79.8338C146.996 81.4305 149.781 81.2854 152.419 81.2854V80.8499C149.488 80.7047 148.022 79.1081 146.41 77.2211Z" fill="#1D1D1B"/>
<path d="M120.03 52.5449V46.4485C119.737 46.5936 119.15 46.7388 118.124 47.0291C117.099 47.3194 115.78 47.4646 114.167 47.4646H97.6064C95.9943 47.4646 93.2097 47.1742 91.7441 46.5936V52.6901H92.1838V51.8191C92.1838 50.2225 93.3563 48.9161 94.9684 48.9161H104.202V77.9467C104.202 78.8176 103.908 79.3982 103.176 79.9788C102.296 80.8497 101.563 80.8497 100.391 80.8497V81.2852H111.09V80.8497H110.503C108.745 80.8497 107.426 79.5434 107.426 77.8015V48.7709H116.659C118.271 48.7709 119.443 50.0773 119.443 51.674V52.5449H120.03Z" fill="#1D1D1B"/>
<path d="M182.172 52.1096H170.74V52.5451H171.473C172.939 52.5451 174.258 53.5611 174.258 55.1578V78.092C174.258 78.8178 173.964 79.3984 173.378 79.979C172.499 80.7047 171.766 80.7047 170.74 80.7047V81.1402H180.853V80.7047C180.12 80.7047 179.534 80.7048 178.801 80.4144C177.922 79.979 177.482 79.1081 177.335 78.092V53.5611H182.025C186.129 53.5611 189.793 55.4481 189.793 59.9479C189.793 61.1091 189.646 61.98 189.5 62.5606C188.913 64.3025 187.887 65.754 186.422 66.4798C184.517 67.7861 181.439 67.9313 179.241 67.3507V67.7861C180.853 68.5119 182.611 68.9474 184.37 68.9474C189.646 68.9474 193.31 65.4637 193.31 60.2382C193.31 54.2869 187.448 52.1096 182.172 52.1096Z" fill="#1D1D1B"/>
<path d="M107.278 84.4787C107.278 83.0272 106.252 82.5917 104.787 83.3175C93.5019 89.2688 84.1223 79.5435 75.7685 65.8991L83.6826 55.0127C84.2688 54.2869 85.0016 53.7063 85.7344 53.2708C86.9069 52.5451 87.7862 52.5451 88.9587 52.5451V52.1096H78.1134V52.5451C78.8462 52.5451 79.579 52.5451 80.1652 53.2708C80.6049 53.8515 80.898 54.4321 80.3118 55.1578L74.4495 64.0122L68.2941 55.1578C67.8544 54.4321 68.001 53.9966 68.4406 53.2708C68.8803 52.5451 69.7597 52.5451 70.4924 52.5451V52.1096H59.061V52.5451H59.6472C61.4059 52.5451 63.3111 53.5611 64.337 55.0127L72.5442 66.7701L63.4577 78.3823C61.8456 80.2693 60.5266 80.7047 58.1816 80.7047V81.1402H68.8803V80.7047C68.1475 80.7047 67.2682 80.7047 66.8285 79.979C66.3888 79.2532 66.0957 78.6726 66.682 77.9468L73.8633 68.3667C87.7862 88.3978 107.425 89.9945 107.278 84.4787Z" fill="#1D1D1B"/>
<path d="M13.9229 79.6884H6.88819V50.803C6.88819 50.2224 7.03474 49.7869 7.32786 49.2063C8.2072 47.7548 9.2331 47.7548 10.6987 47.7548V47.3193H0V47.7548H0.586229C2.34491 47.7548 3.66393 49.0612 3.66393 50.803V77.6563C3.66393 79.3981 2.19836 80.7045 0.586229 80.7045H0V81.14H20.2249L23.0095 73.3017H22.5698C20.9577 77.5111 18.6128 79.6884 13.9229 79.6884Z" fill="#1D1D1B"/>
<path d="M48.6594 52.6891H49.3922C50.7112 52.6891 51.7371 53.56 51.7371 54.7213V70.9784C51.7371 76.9297 47.9266 80.5585 41.9178 80.5585C35.6158 80.5585 32.6847 76.349 32.6847 70.3978V54.7213C32.6847 54.1407 32.9778 53.7052 33.4175 53.2697C34.1503 52.544 34.8831 52.6891 35.7624 52.6891V52.2537H26.5293V52.6891C27.4086 52.6891 28.1414 52.6891 28.8742 53.2697C29.3139 53.7052 29.607 54.1407 29.607 54.7213V70.9784C29.607 78.236 34.8831 81.8649 41.7712 81.8649C48.6594 81.8649 53.9355 78.236 53.9355 70.9784V54.7213C53.9355 54.2858 54.0821 53.9955 54.2286 53.7052C54.9614 52.6891 55.8407 52.6891 57.0132 52.6891V52.2537H48.6594V52.6891Z" fill="#1D1D1B"/>
</svg>
