<svg width="22" height="10" viewBox="0 0 22 10" fill="none" xmlns="http://www.w3.org/2000/svg">
<path d="M10.9528 9.17383L9.86115 7.10492L8.80469 5.03601C9.56182 3.58337 10.2309 2.32442 10.9792 0.898193L13.1538 5.03601L12.0357 7.10492L10.9528 9.17383Z" fill="white"/>
<path d="M21.9136 2.12205L21.8079 2.18368L21.7023 2.25411L21.5878 2.31574L21.4822 2.38617L21.3677 2.4478L21.2621 2.50942L21.1564 2.57105L21.042 2.63268L20.9275 2.69431L20.8219 2.74713L20.7074 2.80876L20.593 2.87038L20.4873 2.93201L20.3729 2.98483L20.2584 3.04646L20.144 3.09928L20.0295 3.15211L19.9151 3.20493L19.8006 3.26656L19.739 3.29297L18.7266 1.0832L18.7706 1.06559L18.8762 1.02157L18.9731 0.968748L19.0787 0.915924L19.1756 0.871905L19.2724 0.819082L19.378 0.766259L19.4749 0.713436L19.5717 0.669416L19.6686 0.616593L19.7742 0.554966L19.8711 0.502142L19.9679 0.44932L20.0648 0.396496L20.1616 0.343673L20.2584 0.282046L20.3553 0.229223L20.4521 0.176399L20.549 0.114773L20.6458 0.0531458L20.7338 0.000322236L22.0016 2.06923L21.9136 2.12205Z" fill="white"/>
<path d="M17.1756 4.27881L17.0523 4.31402L16.9291 4.34924L16.8058 4.39326L16.6825 4.42847L16.5593 4.45489L16.4272 4.4901L16.304 4.52532L16.1807 4.56053L16.0575 4.58694L15.9254 4.62216L15.8022 4.65737L15.6789 4.68379L15.5468 4.7102L15.4236 4.73661L15.2915 4.77182L15.1683 4.79824L15.0362 4.81584L14.913 4.84226L14.8425 4.85986L14.4023 2.47402L14.4552 2.46521L14.5696 2.4388L14.6841 2.42119L14.7897 2.39478L14.9042 2.36837L15.0186 2.34196L15.1331 2.31555L15.2387 2.28913L15.3532 2.27153L15.4676 2.23631L15.5733 2.2099L15.6877 2.18349L15.8022 2.14827L15.9078 2.12186L16.0135 2.09545L16.1279 2.06023L16.2335 2.02502L16.348 1.99861L16.4536 1.96339L16.5681 1.92818L16.6121 1.91057L17.3428 4.22599L17.2988 4.23479L17.1756 4.27881Z" fill="white"/>
<path d="M7.12326 4.86864L6.9912 4.84223L6.85914 4.81581L6.73589 4.79821L6.60383 4.7718L6.48057 4.73658L6.34852 4.71017L6.22526 4.68376L6.0932 4.65734L5.96995 4.62213L5.8467 4.58691L5.72344 4.5605L5.59138 4.52529L5.46813 4.49007L5.34488 4.45486L5.22162 4.42844L5.09837 4.39323L4.97511 4.34921L4.84305 4.31399L4.7286 4.27878L4.67578 4.26117L5.4065 1.94575L5.44172 1.96336L5.55617 1.99858L5.66181 2.02499L5.76746 2.0602L5.88191 2.09542L5.99636 2.12183L6.10201 2.14824L6.21646 2.18346L6.3221 2.20987L6.43655 2.23628L6.5422 2.2715L6.65665 2.2891L6.7711 2.31552L6.88555 2.34193L6.9912 2.36834L7.10565 2.39475L7.2201 2.42116L7.33455 2.43877L7.449 2.46518L7.55465 2.48279L7.61627 2.49159L7.17608 4.87744L7.12326 4.86864Z" fill="white"/>
<path d="M2.21857 3.31931L2.10412 3.26648L1.98967 3.20486L1.87522 3.15203L1.76077 3.09921L1.64632 3.04639L1.53187 2.98476L1.41742 2.93194L1.30297 2.87031L1.19733 2.80868L1.08288 2.74705L0.968425 2.69423L0.862779 2.6326L0.748329 2.57098L0.642682 2.50935L0.528232 2.44772L0.422586 2.3861L0.308135 2.31567L0.202489 2.25404L0.0968425 2.18361L0 2.13078L1.27656 0.0618753L1.3558 0.114699L1.45264 0.176326L1.54068 0.229149L1.63752 0.281972L1.73436 0.3436L1.8312 0.396422L1.93685 0.449246L2.03369 0.502069L2.13054 0.554892L2.22738 0.616519L2.32422 0.669343L2.42106 0.713362L2.52671 0.766185L2.62355 0.819008L2.72039 0.871831L2.82604 0.915851L2.92288 0.968674L3.02853 1.0215L3.12537 1.06552L3.23102 1.10954L3.28384 1.13595L2.2714 3.33691L2.21857 3.31931Z" fill="white"/>
</svg>
