<svg width="22" height="10" viewBox="0 0 22 10" fill="none" xmlns="http://www.w3.org/2000/svg">
<path d="M10.9528 0.416992L9.86115 2.4859L8.80469 4.55481C9.56182 6.00745 10.2309 7.2664 10.9792 8.69263L13.1538 4.55481L12.0357 2.4859L10.9528 0.416992Z" fill="white"/>
<path d="M21.9136 7.46877L21.8079 7.40714L21.7023 7.33671L21.5878 7.27508L21.4822 7.20465L21.3677 7.14302L21.2621 7.0814L21.1564 7.01977L21.042 6.95814L20.9275 6.89651L20.8219 6.84369L20.7074 6.78206L20.593 6.72044L20.4873 6.65881L20.3729 6.60599L20.2584 6.54436L20.144 6.49154L20.0295 6.43871L19.9151 6.38589L19.8006 6.32426L19.739 6.29785L18.7266 8.50762L18.7706 8.52523L18.8762 8.56925L18.9731 8.62207L19.0787 8.6749L19.1756 8.71892L19.2724 8.77174L19.378 8.82456L19.4749 8.87738L19.5717 8.9214L19.6686 8.97423L19.7742 9.03585L19.8711 9.08868L19.9679 9.1415L20.0648 9.19432L20.1616 9.24715L20.2584 9.30877L20.3553 9.3616L20.4521 9.41442L20.549 9.47605L20.6458 9.53767L20.7338 9.5905L22.0016 7.52159L21.9136 7.46877Z" fill="white"/>
<path d="M17.1756 5.31201L17.0523 5.2768L16.9291 5.24158L16.8058 5.19756L16.6825 5.16235L16.5593 5.13593L16.4272 5.10072L16.304 5.0655L16.1807 5.03029L16.0575 5.00388L15.9254 4.96866L15.8022 4.93345L15.6789 4.90703L15.5468 4.88062L15.4236 4.85421L15.2915 4.819L15.1683 4.79258L15.0362 4.77498L14.913 4.74856L14.8425 4.73096L14.4023 7.1168L14.4552 7.12561L14.5696 7.15202L14.6841 7.16963L14.7897 7.19604L14.9042 7.22245L15.0186 7.24886L15.1331 7.27527L15.2387 7.30169L15.3532 7.31929L15.4676 7.35451L15.5733 7.38092L15.6877 7.40733L15.8022 7.44255L15.9078 7.46896L16.0135 7.49537L16.1279 7.53059L16.2335 7.5658L16.348 7.59221L16.4536 7.62743L16.5681 7.66264L16.6121 7.68025L17.3428 5.36484L17.2988 5.35603L17.1756 5.31201Z" fill="white"/>
<path d="M7.12326 4.72218L6.9912 4.74859L6.85914 4.77501L6.73589 4.79261L6.60383 4.81903L6.48057 4.85424L6.34852 4.88065L6.22526 4.90706L6.0932 4.93348L5.96995 4.96869L5.8467 5.00391L5.72344 5.03032L5.59138 5.06553L5.46813 5.10075L5.34488 5.13596L5.22162 5.16238L5.09837 5.19759L4.97511 5.24161L4.84305 5.27683L4.7286 5.31204L4.67578 5.32965L5.4065 7.64507L5.44172 7.62746L5.55617 7.59224L5.66181 7.56583L5.76746 7.53062L5.88191 7.4954L5.99636 7.46899L6.10201 7.44258L6.21646 7.40736L6.3221 7.38095L6.43655 7.35454L6.5422 7.31932L6.65665 7.30172L6.7711 7.2753L6.88555 7.24889L6.9912 7.22248L7.10565 7.19607L7.2201 7.16966L7.33455 7.15205L7.449 7.12564L7.55465 7.10803L7.61627 7.09923L7.17608 4.71338L7.12326 4.72218Z" fill="white"/>
<path d="M2.21857 6.27151L2.10412 6.32434L1.98967 6.38596L1.87522 6.43879L1.76077 6.49161L1.64632 6.54443L1.53187 6.60606L1.41742 6.65888L1.30297 6.72051L1.19733 6.78214L1.08288 6.84377L0.968425 6.89659L0.862779 6.95822L0.748329 7.01984L0.642682 7.08147L0.528232 7.1431L0.422586 7.20472L0.308135 7.27515L0.202489 7.33678L0.0968425 7.40721L0 7.46004L1.27656 9.52894L1.3558 9.47612L1.45264 9.41449L1.54068 9.36167L1.63752 9.30885L1.73436 9.24722L1.8312 9.1944L1.93685 9.14157L2.03369 9.08875L2.13054 9.03593L2.22738 8.9743L2.32422 8.92148L2.42106 8.87746L2.52671 8.82464L2.62355 8.77181L2.72039 8.71899L2.82604 8.67497L2.92288 8.62215L3.02853 8.56932L3.12537 8.5253L3.23102 8.48128L3.28384 8.45487L2.2714 6.25391L2.21857 6.27151Z" fill="white"/>
</svg>
