<svg width="156" height="56" viewBox="0 0 156 56" fill="none" xmlns="http://www.w3.org/2000/svg">
<path fill-rule="evenodd" clip-rule="evenodd" d="M61 7.58301H20C8.95431 7.58301 0 16.5373 0 27.583C0 38.6287 8.9543 47.583 20 47.583H61V46.583H20C9.50659 46.583 1 38.0764 1 27.583C1 17.0896 9.50659 8.58301 20 8.58301H61V7.58301ZM95 46.583H136C146.493 46.583 155 38.0764 155 27.583C155 17.0896 146.493 8.58301 136 8.58301H95V7.58301H136C147.046 7.58301 156 16.5373 156 27.583C156 38.6287 147.046 47.583 136 47.583H95V46.583Z" fill="white"/>
<path d="M77.9509 0L76.8592 2.06891L75.8027 4.13782C76.5599 5.59046 77.229 6.84941 77.9773 8.27563L80.1518 4.13782L79.0338 2.06891L77.9509 0Z" fill="white"/>
<path d="M88.9111 7.05177L88.8055 6.99015L88.6998 6.91972L88.5854 6.85809L88.4797 6.78766L88.3653 6.72603L88.2596 6.6644L88.154 6.60278L88.0395 6.54115L87.9251 6.47952L87.8194 6.4267L87.705 6.36507L87.5905 6.30345L87.4849 6.24182L87.3704 6.189L87.256 6.12737L87.1415 6.07454L87.0271 6.02172L86.9126 5.9689L86.7982 5.90727L86.7366 5.88086L85.7241 8.09063L85.7681 8.10824L85.8738 8.15226L85.9706 8.20508L86.0763 8.2579L86.1731 8.30192L86.27 8.35475L86.3756 8.40757L86.4725 8.46039L86.5693 8.50441L86.6661 8.55724L86.7718 8.61886L86.8686 8.67169L86.9655 8.72451L87.0623 8.77733L87.1592 8.83015L87.256 8.89178L87.3528 8.94461L87.4497 8.99743L87.5465 9.05906L87.6434 9.12068L87.7314 9.17351L88.9992 7.1046L88.9111 7.05177Z" fill="white"/>
<path d="M84.1756 4.89502L84.0523 4.8598L83.9291 4.82459L83.8058 4.78057L83.6825 4.74535L83.5593 4.71894L83.4272 4.68373L83.304 4.64851L83.1807 4.6133L83.0575 4.58688L82.9254 4.55167L82.8022 4.51645L82.6789 4.49004L82.5468 4.46363L82.4236 4.43722L82.2915 4.402L82.1683 4.37559L82.0362 4.35798L81.913 4.33157L81.8425 4.31396L81.4023 6.69981L81.4552 6.70862L81.5696 6.73503L81.6841 6.75264L81.7897 6.77905L81.9042 6.80546L82.0186 6.83187L82.1331 6.85828L82.2387 6.88469L82.3532 6.9023L82.4676 6.93752L82.5733 6.96393L82.6877 6.99034L82.8022 7.02556L82.9078 7.05197L83.0135 7.07838L83.1279 7.11359L83.2335 7.14881L83.348 7.17522L83.4536 7.21044L83.5681 7.24565L83.6121 7.26326L84.3428 4.94784L84.2988 4.93904L84.1756 4.89502Z" fill="white"/>
<path d="M74.1213 4.30519L73.9892 4.3316L73.8572 4.35801L73.7339 4.37562L73.6019 4.40203L73.4786 4.43725L73.3466 4.46366L73.2233 4.49007L73.0913 4.51648L72.968 4.5517L72.8447 4.58691L72.7215 4.61333L72.5894 4.64854L72.4662 4.68376L72.3429 4.71897L72.2197 4.74538L72.0964 4.7806L71.9732 4.82462L71.8411 4.85983L71.7267 4.89505L71.6738 4.91266L72.4045 7.22807L72.4398 7.21047L72.5542 7.17525L72.6599 7.14884L72.7655 7.11362L72.88 7.07841L72.9944 7.052L73.1001 7.02559L73.2145 6.99037L73.3202 6.96396L73.4346 6.93755L73.5402 6.90233L73.6547 6.88472L73.7691 6.85831L73.8836 6.8319L73.9892 6.80549L74.1037 6.77908L74.2181 6.75267L74.3326 6.73506L74.447 6.70865L74.5527 6.69104L74.6143 6.68223L74.1741 4.29639L74.1213 4.30519Z" fill="white"/>
<path d="M69.2176 5.85452L69.1031 5.90734L68.9887 5.96897L68.8742 6.0218L68.7598 6.07462L68.6453 6.12744L68.5309 6.18907L68.4164 6.24189L68.302 6.30352L68.1963 6.36515L68.0819 6.42677L67.9674 6.4796L67.8618 6.54122L67.7474 6.60285L67.6417 6.66448L67.5273 6.7261L67.4216 6.78773L67.3072 6.85816L67.2015 6.91979L67.0959 6.99022L66.999 7.04304L68.2756 9.11195L68.3548 9.05913L68.4517 8.9975L68.5397 8.94468L68.6365 8.89186L68.7334 8.83023L68.8302 8.77741L68.9359 8.72458L69.0327 8.67176L69.1296 8.61894L69.2264 8.55731L69.3232 8.50449L69.4201 8.46047L69.5257 8.40764L69.6226 8.35482L69.7194 8.302L69.8251 8.25798L69.9219 8.20515L70.0276 8.15233L70.1244 8.10831L70.23 8.06429L70.2829 8.03788L69.2704 5.83691L69.2176 5.85452Z" fill="white"/>
<path d="M77.9509 55.7568L76.8592 53.6879L75.8027 51.619C76.5599 50.1664 77.229 48.9074 77.9773 47.4812L80.1518 51.619L79.0338 53.6879L77.9509 55.7568Z" fill="white"/>
<path d="M88.9111 48.7051L88.8055 48.7667L88.6998 48.8371L88.5854 48.8987L88.4797 48.9692L88.3653 49.0308L88.2596 49.0924L88.154 49.1541L88.0395 49.2157L87.9251 49.2773L87.8194 49.3301L87.705 49.3918L87.5905 49.4534L87.4849 49.515L87.3704 49.5678L87.256 49.6295L87.1415 49.6823L87.0271 49.7351L86.9126 49.7879L86.7982 49.8496L86.7366 49.876L85.7241 47.6662L85.7681 47.6486L85.8738 47.6046L85.9706 47.5518L86.0763 47.4989L86.1731 47.4549L86.27 47.4021L86.3756 47.3493L86.4725 47.2964L86.5693 47.2524L86.6661 47.1996L86.7718 47.138L86.8686 47.0852L86.9655 47.0323L87.0623 46.9795L87.1592 46.9267L87.256 46.8651L87.3528 46.8122L87.4497 46.7594L87.5465 46.6978L87.6434 46.6362L87.7314 46.5833L88.9992 48.6522L88.9111 48.7051Z" fill="white"/>
<path d="M84.1756 50.8618L84.0523 50.897L83.9291 50.9322L83.8058 50.9763L83.6825 51.0115L83.5593 51.0379L83.4272 51.0731L83.304 51.1083L83.1807 51.1435L83.0575 51.17L82.9254 51.2052L82.8022 51.2404L82.6789 51.2668L82.5468 51.2932L82.4236 51.3196L82.2915 51.3548L82.1683 51.3812L82.0362 51.3989L81.913 51.4253L81.8425 51.4429L81.4023 49.057L81.4552 49.0482L81.5696 49.0218L81.6841 49.0042L81.7897 48.9778L81.9042 48.9514L82.0186 48.925L82.1331 48.8986L82.2387 48.8721L82.3532 48.8545L82.4676 48.8193L82.5733 48.7929L82.6877 48.7665L82.8022 48.7313L82.9078 48.7049L83.0135 48.6785L83.1279 48.6432L83.2335 48.608L83.348 48.5816L83.4536 48.5464L83.5681 48.5112L83.6121 48.4936L84.3428 50.809L84.2988 50.8178L84.1756 50.8618Z" fill="white"/>
<path d="M74.1213 51.4516L73.9892 51.4252L73.8572 51.3988L73.7339 51.3812L73.6019 51.3548L73.4786 51.3196L73.3466 51.2932L73.2233 51.2668L73.0913 51.2404L72.968 51.2051L72.8447 51.1699L72.7215 51.1435L72.5894 51.1083L72.4662 51.0731L72.3429 51.0379L72.2197 51.0115L72.0964 50.9762L71.9732 50.9322L71.8411 50.897L71.7267 50.8618L71.6738 50.8442L72.4045 48.5288L72.4398 48.5464L72.5542 48.5816L72.6599 48.608L72.7655 48.6432L72.88 48.6784L72.9944 48.7048L73.1001 48.7313L73.2145 48.7665L73.3202 48.7929L73.4346 48.8193L73.5402 48.8545L73.6547 48.8721L73.7691 48.8985L73.8836 48.9249L73.9892 48.9513L74.1037 48.9778L74.2181 49.0042L74.3326 49.0218L74.447 49.0482L74.5527 49.0658L74.6143 49.0746L74.1741 51.4604L74.1213 51.4516Z" fill="white"/>
<path d="M69.2176 49.9023L69.1031 49.8495L68.9887 49.7879L68.8742 49.735L68.7598 49.6822L68.6453 49.6294L68.5309 49.5678L68.4164 49.5149L68.302 49.4533L68.1963 49.3917L68.0819 49.3301L67.9674 49.2772L67.8618 49.2156L67.7474 49.154L67.6417 49.0924L67.5273 49.0307L67.4216 48.9691L67.3072 48.8987L67.2015 48.837L67.0959 48.7666L66.999 48.7138L68.2756 46.6449L68.3548 46.6977L68.4517 46.7593L68.5397 46.8122L68.6365 46.865L68.7334 46.9266L68.8302 46.9794L68.9359 47.0323L69.0327 47.0851L69.1296 47.1379L69.2264 47.1995L69.3232 47.2524L69.4201 47.2964L69.5257 47.3492L69.6226 47.402L69.7194 47.4548L69.8251 47.4989L69.9219 47.5517L70.0276 47.6045L70.1244 47.6485L70.23 47.6925L70.2829 47.719L69.2704 49.9199L69.2176 49.9023Z" fill="white"/>
</svg>
